<svg width="130" height="69" fill="none" xmlns="http://www.w3.org/2000/svg"><path d="M0 3a3 3 0 0 1 3-3h9a3 3 0 0 1 3 3v43a3 3 0 0 1-3 3H3a3 3 0 0 1-3-3V3zM127 0a3 3 0 0 1 3 3v61a3 3 0 0 1-3 3h-9a3 3 0 0 1-3-3V18a3 3 0 0 0-3-3h-9a3 3 0 0 1-3-3V3a3 3 0 0 1 3-3h24zM37 3.001A3 3 0 0 1 40 0h9a3 3 0 0 1 3 3v63a3 3 0 0 1-3 3h-9a3 3 0 0 1-3-3V46a3 3 0 0 0-3-3h-9a3 3 0 0 1-3-3v-9a3 3 0 0 1 3-3h9a3 3 0 0 0 3-3.001V3.001zM107 45c0 12.15-9.85 22-22 22h-7a3 3 0 0 1-3-3v-9a3 3 0 0 1 3-3h7c4 0 7-3 7-7s-3-7-7-7H62.992A2.993 2.993 0 0 1 60 35V3a3 3 0 0 1 3-3h9a3 3 0 0 1 3 3v17a3 3 0 0 0 3 3h7c12.15 0 22 9.85 22 22z" fill="#596275"/></svg>
